<svg preserveAspectRatio="none" width="100%" height="100%" overflow="visible" style="display: block;" viewBox="0 0 16 18.2857" fill="none" xmlns="http://www.w3.org/2000/svg">
<path id="Vector" d="M15.9998 18.2857H8.01159C5.78906 18.2857 3.78726 17.3845 2.35147 15.9137C0.892335 14.4615 0 12.439 0 10.2189C0 7.97714 0.892335 5.95466 2.35147 4.50461C3.17644 3.66637 4.18032 3.00788 5.31109 2.61329V0.194632C5.31109 0.0191699 5.5077 -0.0667416 5.6396 0.0614137L6.92281 1.38031C6.98719 1.4485 7.11941 1.4485 7.2073 1.35958L7.85916 0.45822C7.92371 0.371518 8.07629 0.371518 8.16434 0.45822L8.8162 1.35958C8.88356 1.4485 9.01265 1.4485 9.10069 1.38031L10.3839 0.0614137C10.4923 -0.0667416 10.6889 0.0191699 10.6889 0.194632V2.61329C13.7804 3.71305 16 6.70191 16 10.2189V18.2857H15.9998ZM8.00266 7.01661C7.13085 7.01661 6.34175 7.37497 5.77057 7.94977C5.19876 8.52963 4.84455 9.32862 4.84455 10.2093C4.84455 11.0897 5.19876 11.8845 5.77057 12.4643C6.34175 13.0412 7.13085 13.3967 8.00266 13.3967H11.1639V10.2093C11.1639 8.44593 9.74864 7.01676 8.00266 7.01676V7.01661Z" fill="var(--fill-0, #8B0037)"/>
</svg>
